<svg xmlns="http://www.w3.org/2000/svg" width="16" height="16" viewBox="0 0 16 16" fill="none">
  <path d="M6.4701 8.82676C6.41986 8.82676 5.36594 8.82708 4.87986 8.8266C4.62962 8.82644 4.54034 8.73652 4.54034 8.48468C4.54002 7.8378 4.53986 7.19092 4.54034 6.54404C4.5405 6.2954 4.6349 6.20052 4.88194 6.20036C5.36802 6.20004 6.41618 6.2002 6.4701 6.2002C6.4701 6.15588 6.46994 5.22196 6.4701 4.79188C6.47042 4.15604 6.58386 3.5474 6.9069 2.99012C7.23762 2.41972 7.7189 2.029 8.3357 1.80308C8.73074 1.65828 9.14082 1.60052 9.56002 1.6002C10.0845 1.59988 10.609 1.60036 11.1336 1.60132C11.3591 1.60164 11.4591 1.70132 11.4595 1.92836C11.4605 2.53684 11.4605 3.14532 11.4595 3.75364C11.4592 3.98308 11.3634 4.07524 11.1328 4.0778C10.7029 4.08244 10.2727 4.07956 9.84322 4.09684C9.40946 4.09684 9.1813 4.30868 9.1813 4.75764C9.1709 5.23252 9.17698 5.70788 9.17698 6.20004C9.21762 6.20004 10.452 6.19988 11.029 6.20004C11.2911 6.20004 11.3807 6.29012 11.3807 6.55364C11.3807 7.197 11.3805 7.84052 11.38 8.48388C11.3799 8.74356 11.2957 8.82644 11.032 8.8266C10.4551 8.82692 9.22546 8.82676 9.1717 8.82676V14.034C9.1717 14.3116 9.08434 14.4 8.81042 14.4C8.14258 14.4 7.47458 14.4002 6.80674 14.4C6.56466 14.4 6.47026 14.306 6.47026 14.0639C6.4701 12.368 6.4701 8.88628 6.4701 8.82676Z" fill="white"/>
</svg>