<svg xmlns="http://www.w3.org/2000/svg" width="16" height="16" viewBox="0 0 16 16" fill="none">
  <path d="M15.6518 3.82118C15.4682 3.13176 15.0659 2.54824 14.3765 2.36471C13.1271 2.03059 8 2 8 2C8 2 2.87294 2.03059 1.62353 2.36471C0.934118 2.54824 0.534118 3.13176 0.348235 3.82118C0.0141177 5.07059 0 7.64706 0 7.64706C0 7.64706 0.0141177 10.2235 0.348235 11.4729C0.531765 12.1624 0.934118 12.7459 1.62353 12.9294C2.87294 13.2635 8 13.2941 8 13.2941C8 13.2941 13.1271 13.2635 14.3765 12.9294C15.0659 12.7459 15.4682 12.1624 15.6518 11.4729C15.9859 10.2235 16 7.64706 16 7.64706C16 7.64706 15.9859 5.07059 15.6518 3.82118Z" fill="white"/>
  <path d="M10.6588 7.78794L6 5.19971V10.3762" fill="#1BABE4"/>
</svg>