<svg xmlns="http://www.w3.org/2000/svg" width="16" height="16" viewBox="0 0 16 16" fill="none">
  <path d="M11 7.99999C11 8.79564 10.6839 9.5587 10.1213 10.1213C9.55871 10.6839 8.79565 11 8 11C7.20435 11 6.44129 10.6839 5.87868 10.1213C5.31607 9.5587 5 8.79564 5 7.99999C5 7.20434 5.31607 6.44128 5.87868 5.87867C6.44129 5.31606 7.20435 4.99999 8 4.99999C8.79565 4.99999 9.55871 5.31606 10.1213 5.87867C10.6839 6.44128 11 7.20434 11 7.99999ZM11 7.99999C11 9.10465 11.6713 9.99999 12.5 9.99999C13.3287 9.99999 14 9.10465 14 7.99999C14 6.61186 13.5187 5.26667 12.638 4.19364C11.7574 3.12061 10.532 2.38612 9.1705 2.11532C7.80904 1.84452 6.3958 2.05416 5.17158 2.70853C3.94736 3.3629 2.98791 4.42151 2.45671 5.70398C1.9255 6.98645 1.85541 8.41343 2.25837 9.74179C2.66133 11.0701 3.51242 12.2177 4.66661 12.9889C5.82081 13.7601 7.2067 14.1072 8.58814 13.9711C9.96959 13.8351 11.2611 13.2242 12.2427 12.2427M11 7.99999V5.49999" stroke="#322C1F" stroke-linecap="round" stroke-linejoin="round"/>
</svg>