<svg xmlns="http://www.w3.org/2000/svg" width="16" height="16" viewBox="0 0 16 16" fill="none">
  <path d="M8.79335 5.79199C9.22657 5.99883 9.60382 6.30661 9.89342 6.68948C10.183 7.07235 10.3765 7.51913 10.4576 7.99229C10.5388 8.46545 10.5052 8.95116 10.3596 9.40864C10.2141 9.86611 9.96093 10.282 9.62135 10.6213L6.62135 13.6213C6.05874 14.1839 5.29567 14.5 4.50002 14.5C3.70436 14.5 2.9413 14.1839 2.37869 13.6213C1.81607 13.0587 1.5 12.2956 1.5 11.5C1.5 10.7043 1.81607 9.94127 2.37869 9.37865L3.55002 8.20732M12.45 7.79265L13.6213 6.62132C14.184 6.05871 14.5 5.29564 14.5 4.49999C14.5 3.70433 14.184 2.94127 13.6213 2.37865C13.0587 1.81604 12.2957 1.49997 11.5 1.49997C10.7044 1.49997 9.9413 1.81604 9.37868 2.37865L6.37868 5.37865C6.03911 5.71799 5.78593 6.13386 5.64041 6.59134C5.49488 7.04881 5.46127 7.53453 5.5424 8.00768C5.62352 8.48084 5.81701 8.92762 6.10661 9.3105C6.39621 9.69337 6.77347 10.0011 7.20669 10.208" stroke="#322C1F" stroke-linecap="round" stroke-linejoin="round"/>
</svg>